<svg xmlns="http://www.w3.org/2000/svg" version="1.1" xmlns:xlink="http://www.w3.org/1999/xlink" width="512" height="512" x="0" y="0" viewBox="0 0 60 60" style="enable-background:new 0 0 512 512" xml:space="preserve"><g><g fill="#000" fill-rule="nonzero" transform="translate(-1 -1)"><path d="M2.471 38.391c.33.228.676.429 1.038.6.433.221 1.157.591 1.208.851.064.341.023.694-.117 1.012-.149.32-.306.595-.44.833-.367.646-.979 1.729-.055 2.485.216.2.589.489.93.75a2.52 2.52 0 0 0-.326 1.443c.053.394.265.748.587.98.225.16.466.3.7.435.588.335.818.491.9.8.054.407.016.82-.11 1.211a9.38 9.38 0 0 0-.153.785c-.1.912.017 1.835.338 2.694A3.747 3.747 0 0 0 10.514 56c.275-.001.548-.03.817-.086a75.815 75.815 0 0 0 8.431-2.523c2.252 1.322 3.676 5.342 4.047 6.851a1 1 0 0 0 .971.758l25.1-.07a1 1 0 0 0 .952-1.3 7.725 7.725 0 0 0-1.013-1.9 9.281 9.281 0 0 1-.648-1.08c-.452-.917-.83-1.87-1.129-2.847a33.7 33.7 0 0 1-1.183-5.916 16.929 16.929 0 0 1 1.314-8.781c.74-1.53 1.65-2.97 2.716-4.293.6-.81 1.223-1.649 1.782-2.53a15.466 15.466 0 0 0 2.06-4.87 1 1 0 0 0-1.948-.452 13.5 13.5 0 0 1-1.8 4.25c-.519.821-1.119 1.629-1.7 2.411a24.166 24.166 0 0 0-2.943 4.685 18.918 18.918 0 0 0-1.466 9.82c.23 2.125.653 4.224 1.261 6.273a20.855 20.855 0 0 0 1.241 3.132c.228.45.487.885.775 1.3l.067.1L25.536 59a15.947 15.947 0 0 0-3.521-6.386l.9-.313c.672-.235 1.179-.412 1.441-.5 4.282-1.365 6.424-3.315 6.365-5.8a.982.982 0 0 0-1.021-.971 1 1 0 0 0-.976 1.023c.024 1.023-.819 2.521-4.976 3.845-.272.087-.8.27-1.491.513-.743.259-1.685.589-2.725.942h-.007a77.879 77.879 0 0 1-8.594 2.6 1.781 1.781 0 0 1-2.06-1.331 4 4 0 0 1-.247-1.772c.029-.2.076-.41.122-.614a4.364 4.364 0 0 0 .1-2.153A3.314 3.314 0 0 0 7 46.042l-.215-.123a3.68 3.68 0 0 1 .386-.62 1 1 0 0 0-.193-1.424c-.239-.176-.8-.6-1.22-.934.048-.087.1-.183.151-.269.157-.276.337-.6.511-.967.317-.7.41-1.482.266-2.237-.239-1.22-1.408-1.818-2.261-2.254a5.782 5.782 0 0 1-.824-.479 4.26 4.26 0 0 1-.6-.486c0-.152.163-.519.924-1.446A40.346 40.346 0 0 0 8.5 27.368c.235-.413.367-.877.386-1.352a3.5 3.5 0 0 0-1.467-2.5c-.405-.372-.788-.722-.831-1.017.01-.245.064-.486.162-.711.163-.428.352-.848.54-1.269.422-.869.757-1.777 1-2.711.23-1.12.53-2.226.9-3.308a17.145 17.145 0 0 1 3.588-5.861C14.69 6.614 17.7 5.182 21.74 4.38a64.983 64.983 0 0 1 9.382-1.352 21.889 21.889 0 0 1 3.185.068 1.002 1.002 0 1 0 .186-1.996 24.325 24.325 0 0 0-3.476-.069c-3.254.226-6.486.69-9.672 1.388-4.509.9-7.786 2.481-10.022 4.845a19.127 19.127 0 0 0-4.012 6.543 29.234 29.234 0 0 0-.985 3.614 12.951 12.951 0 0 1-.858 2.28c-.2.455-.406.91-.586 1.383a3.494 3.494 0 0 0-.272 1.679 3.845 3.845 0 0 0 1.463 2.226c.49.449.813.765.817 1.041a1.694 1.694 0 0 1-.17.434 38.6 38.6 0 0 1-4.376 7.111c-.724.883-1.484 1.912-1.325 2.942.213.794.736 1.47 1.452 1.874Z" fill="#000000" opacity="1" data-original="#000000"/><path d="M12.938 15.889c.602-1.67 1.536-3.2 2.744-4.5 1.333-1.411 3.638-2.45 6.852-3.089a1 1 0 0 0-.389-1.962c-3.629.722-6.292 1.958-7.916 3.674a15.16 15.16 0 0 0-3.168 5.188c-.337.999-.61 2.018-.821 3.051l1.953.433a23.9 23.9 0 0 1 .745-2.795ZM33.859 6.6l-.6 2.992c-.578.19-1.141.424-1.684.7l-2.539-1.7a2 2 0 0 0-2.512.261l-1.66 1.659a2 2 0 0 0-.264 2.535l1.692 2.527c-.276.543-.51 1.106-.7 1.684l-2.988.6A2 2 0 0 0 21 19.82v2.36a2 2 0 0 0 1.6 1.961l2.992.6c.19.578.424 1.141.7 1.684l-1.7 2.539a2 2 0 0 0 .261 2.512l1.66 1.66a2.006 2.006 0 0 0 2.534.263l2.527-1.692c.543.276 1.106.51 1.684.7l.6 2.988A2 2 0 0 0 35.82 37h2.36a2 2 0 0 0 1.961-1.6l.6-2.992c.578-.19 1.141-.424 1.684-.7l2.539 1.7a2 2 0 0 0 2.512-.261l1.659-1.659a2 2 0 0 0 .264-2.535l-1.692-2.527c.276-.543.51-1.106.7-1.684l2.988-.6c.594-.12 1.1-.503 1.377-1.042l1.507 1.01c.29.183.627.28.971.281a1.8 1.8 0 0 0 1.277-.531l1.33-1.33a1.816 1.816 0 0 0 .233-2.274l-1.29-1.93a9.4 9.4 0 0 0 .484-1.162l2.263-.451A1.8 1.8 0 0 0 61 14.94v-1.88a1.8 1.8 0 0 0-1.445-1.771l-2.273-.453a9.256 9.256 0 0 0-.482-1.162l1.31-1.953c.454-.715.35-1.65-.25-2.248l-1.33-1.33a1.815 1.815 0 0 0-2.274-.233l-1.93 1.29a9.4 9.4 0 0 0-1.162-.484l-.452-2.263A1.8 1.8 0 0 0 48.94 1h-1.88a1.8 1.8 0 0 0-1.771 1.445l-.453 2.273a9.256 9.256 0 0 0-1.162.485l-1.953-1.31a1.809 1.809 0 0 0-2.248.25l-.9.9A2.049 2.049 0 0 0 38.18 5h-2.36a2 2 0 0 0-1.961 1.6Zm15.288 3.92-.467-.467a3.979 3.979 0 0 1 1.243 7.507l-1.518-.3a11.906 11.906 0 0 0-.7-1.684l1.7-2.539a2 2 0 0 0-.258-2.514v-.003Zm-8.37-4.856L43.063 7.2a1 1 0 0 0 1.068.029 7.315 7.315 0 0 1 1.83-.765 1 1 0 0 0 .72-.77L47.218 3h1.564l.537 2.7a1 1 0 0 0 .72.77c.642.17 1.258.428 1.83.765a1 1 0 0 0 1.068-.035l2.286-1.534 1.11 1.11L54.8 9.063a1 1 0 0 0-.029 1.068c.337.572.594 1.188.765 1.83a1 1 0 0 0 .77.72l2.7.537v1.564l-2.695.537a1 1 0 0 0-.77.72 7.315 7.315 0 0 1-.765 1.83 1 1 0 0 0 .029 1.068l1.534 2.286-1.11 1.11L53 20.842V19.82c0-.585-.256-1.142-.7-1.523A5.986 5.986 0 0 0 48.13 8a5.787 5.787 0 0 0-1.779.292 2.028 2.028 0 0 0-1.4.308l-2.525 1.692a11.906 11.906 0 0 0-1.684-.7l-.6-2.988a1.834 1.834 0 0 0-.069-.236l.704-.704ZM35.1 10.577 35.82 7h2.36l.719 3.58a1 1 0 0 0 .719.768c.826.223 1.62.552 2.361.98a1 1 0 0 0 1.058-.034l3.026-2.024 1.676 1.667-2.03 3.029a1 1 0 0 0-.034 1.058c.428.741.757 1.535.98 2.361a1 1 0 0 0 .768.719l3.577.715v2.361l-3.58.719a1 1 0 0 0-.768.719 9.851 9.851 0 0 1-.98 2.361 1 1 0 0 0 .034 1.058l2.024 3.026-1.667 1.676-3.029-2.03a1 1 0 0 0-1.058-.034 9.851 9.851 0 0 1-2.361.98 1 1 0 0 0-.719.768L38.18 35h-2.36l-.719-3.58a1 1 0 0 0-.719-.768 9.851 9.851 0 0 1-2.361-.98 1 1 0 0 0-1.058.034l-3.026 2.024-1.676-1.667 2.03-3.029a1 1 0 0 0 .034-1.058 9.851 9.851 0 0 1-.98-2.361 1 1 0 0 0-.768-.719L23 22.18v-2.36l3.58-.719a1 1 0 0 0 .768-.719c.223-.826.552-1.62.98-2.361a1 1 0 0 0-.034-1.058l-2.024-3.026 1.667-1.676 3.029 2.03a1 1 0 0 0 1.058.034 9.851 9.851 0 0 1 2.361-.98 1 1 0 0 0 .715-.768Z" fill="#000000" opacity="1" data-original="#000000"/><path d="M37 28a7 7 0 1 0-7-7 7.008 7.008 0 0 0 7 7Zm0-12a5 5 0 1 1 0 10 5 5 0 0 1 0-10Z" fill="#000000" opacity="1" data-original="#000000"/><circle cx="37" cy="21" r="1" fill="#000000" opacity="1" data-original="#000000"/><circle cx="10" cy="22" r="1" fill="#000000" opacity="1" data-original="#000000"/></g></g></svg>